<svg width="170" height="14" viewBox="0 0 170 14" fill="none" xmlns="http://www.w3.org/2000/svg">
<path d="M1.628 13C1.124 13 0.872 12.748 0.872 12.244V1.552C0.872 1.048 1.124 0.795999 1.628 0.795999C1.958 0.795999 2.234 0.957999 2.456 1.282L6.704 7.672L6.38 7.726L10.664 1.282C10.868 0.957999 11.174 0.795999 11.582 0.795999C11.99 0.795999 12.194 1.048 12.194 1.552V12.244C12.194 12.748 11.942 13 11.438 13C10.934 13 10.682 12.748 10.682 12.244V3.064L11.15 3.226L7.37 8.788C7.148 9.112 6.842 9.274 6.452 9.274C6.182 9.274 5.936 9.112 5.714 8.788L1.934 3.226L2.384 3.352V12.244C2.384 12.748 2.132 13 1.628 13ZM17.0165 9.058V9.49C17.0165 10.264 17.1575 10.792 17.4395 11.074C17.7215 11.35 18.2525 11.488 19.0325 11.488H20.5085C21.1205 11.488 21.5735 11.431 21.8675 11.317C22.1615 11.203 22.3565 11.002 22.4525 10.714C22.5185 10.486 22.6085 10.312 22.7225 10.192C22.8425 10.072 23.0225 10.012 23.2625 10.012C23.5145 10.012 23.7065 10.078 23.8385 10.21C23.9705 10.342 24.0125 10.534 23.9645 10.786C23.8325 11.53 23.4785 12.085 22.9025 12.451C22.3265 12.817 21.5285 13 20.5085 13H19.0325C17.8385 13 16.9505 12.712 16.3685 12.136C15.7925 11.56 15.5045 10.678 15.5045 9.49V7.402C15.5045 6.184 15.7925 5.29 16.3685 4.72C16.9505 4.144 17.8385 3.862 19.0325 3.874H20.5085C21.7085 3.874 22.5965 4.162 23.1725 4.738C23.7485 5.308 24.0365 6.196 24.0365 7.402V8.302C24.0365 8.806 23.7845 9.058 23.2805 9.058H17.0165ZM19.0325 5.386C18.2525 5.374 17.7215 5.509 17.4395 5.791C17.1575 6.073 17.0165 6.61 17.0165 7.402V7.546H22.5245V7.402C22.5245 6.616 22.3835 6.085 22.1015 5.809C21.8255 5.527 21.2945 5.386 20.5085 5.386H19.0325ZM30.4407 13C29.2467 13 28.3587 12.712 27.7767 12.136C27.2007 11.554 26.9127 10.666 26.9127 9.472V7.402C26.9127 6.202 27.2007 5.314 27.7767 4.738C28.3587 4.162 29.2467 3.874 30.4407 3.874H33.9327V1.084C33.9327 0.579999 34.1847 0.327999 34.6887 0.327999C35.1927 0.327999 35.4447 0.579999 35.4447 1.084V12.244C35.4447 12.748 35.1927 13 34.6887 13C34.1847 13 33.9327 12.748 33.9327 12.244V12.118C33.6507 12.406 33.2817 12.625 32.8257 12.775C32.3697 12.925 31.8027 13 31.1247 13H30.4407ZM30.4407 11.488H31.1247C31.9167 11.488 32.5827 11.386 33.1227 11.182C33.6627 10.978 33.9327 10.666 33.9327 10.246V5.386H30.4407C29.6607 5.386 29.1297 5.53 28.8477 5.818C28.5657 6.1 28.4247 6.628 28.4247 7.402V9.472C28.4247 10.252 28.5657 10.783 28.8477 11.065C29.1357 11.347 29.6667 11.488 30.4407 11.488ZM39.5205 2.398C38.9505 2.398 38.6655 2.11 38.6655 1.534V1.003C38.6655 0.439 38.9505 0.157 39.5205 0.157H40.0425C40.5885 0.157 40.8615 0.439 40.8615 1.003V1.534C40.8615 2.11 40.5885 2.398 40.0425 2.398H39.5205ZM39.7725 13C39.2685 13 39.0165 12.748 39.0165 12.244V4.63C39.0165 4.126 39.2685 3.874 39.7725 3.874C40.2765 3.874 40.5285 4.126 40.5285 4.63V12.244C40.5285 12.748 40.2765 13 39.7725 13ZM47.8724 13C46.4984 13 45.4814 12.673 44.8214 12.019C44.1674 11.359 43.8404 10.342 43.8404 8.968V4.828C43.8404 3.442 44.1674 2.422 44.8214 1.768C45.4754 1.108 46.4864 0.784 47.8544 0.795999H50.0324C51.1604 0.795999 52.0214 1.03 52.6154 1.498C53.2094 1.96 53.5544 2.692 53.6504 3.694C53.6864 3.946 53.6384 4.138 53.5064 4.27C53.3744 4.402 53.1824 4.468 52.9304 4.468C52.4744 4.468 52.2104 4.216 52.1384 3.712C52.0784 3.16 51.8864 2.788 51.5624 2.596C51.2444 2.404 50.7344 2.308 50.0324 2.308H47.8544C47.2184 2.302 46.7174 2.374 46.3514 2.524C45.9914 2.674 45.7334 2.935 45.5774 3.307C45.4274 3.673 45.3524 4.18 45.3524 4.828V8.968C45.3524 9.61 45.4274 10.114 45.5774 10.48C45.7334 10.846 45.9944 11.107 46.3604 11.263C46.7264 11.413 47.2304 11.488 47.8724 11.488H50.0324C50.5904 11.488 51.0254 11.428 51.3374 11.308C51.6554 11.182 51.8774 10.963 52.0034 10.651C52.1294 10.339 52.1924 9.898 52.1924 9.328V8.482L50.7884 8.464C50.2844 8.464 50.0324 8.212 50.0324 7.708C50.0324 7.204 50.2844 6.952 50.7884 6.952L52.9484 6.97C53.4524 6.97 53.7044 7.222 53.7044 7.726V9.328C53.7044 10.606 53.4074 11.539 52.8134 12.127C52.2194 12.709 51.2924 13 50.0324 13H47.8724ZM64.2568 3.874C64.7608 3.874 65.0128 4.126 65.0128 4.63V12.244C65.0128 12.748 64.7608 13 64.2568 13C63.7528 13 63.5008 12.748 63.5008 12.244V11.947C62.8648 12.649 61.9288 13 60.6928 13H60.1888C58.9948 13 58.1068 12.712 57.5248 12.136C56.9488 11.554 56.6608 10.666 56.6608 9.472V4.63C56.6608 4.126 56.9128 3.874 57.4168 3.874C57.9208 3.874 58.1728 4.126 58.1728 4.63V9.472C58.1728 10.252 58.3138 10.783 58.5958 11.065C58.8838 11.347 59.4148 11.488 60.1888 11.488H60.6928C61.4128 11.488 62.0398 11.404 62.5738 11.236C63.1138 11.068 63.4228 10.81 63.5008 10.462V4.63C63.5008 4.126 63.7528 3.874 64.2568 3.874ZM71.5667 13C70.5587 13 69.8087 12.754 69.3167 12.262C68.8247 11.77 68.5787 11.02 68.5787 10.012C68.5787 9.004 68.8217 8.254 69.3077 7.762C69.7997 7.27 70.5527 7.024 71.5667 7.024H75.3737C75.3377 6.394 75.1727 5.965 74.8787 5.737C74.5847 5.503 74.0807 5.386 73.3667 5.386H72.3227C71.7227 5.386 71.2757 5.428 70.9817 5.512C70.6877 5.59 70.4807 5.734 70.3607 5.944C70.2527 6.196 70.1417 6.37 70.0277 6.466C69.9137 6.562 69.7427 6.61 69.5147 6.61C69.2627 6.61 69.0647 6.541 68.9207 6.403C68.7767 6.259 68.7347 6.07 68.7947 5.836C68.9747 5.158 69.3497 4.663 69.9197 4.351C70.4957 4.033 71.2967 3.874 72.3227 3.874H73.3667C74.5667 3.874 75.4547 4.162 76.0307 4.738C76.6067 5.314 76.8947 6.202 76.8947 7.402V12.244C76.8947 12.748 76.6427 13 76.1387 13C75.6347 13 75.3827 12.748 75.3827 12.244V11.839C74.7407 12.613 73.8047 13 72.5747 13H71.5667ZM71.5667 11.488H72.5747C73.0187 11.488 73.4357 11.449 73.8257 11.371C74.2157 11.287 74.5487 11.137 74.8247 10.921C75.1067 10.705 75.2927 10.396 75.3827 9.994V8.536H71.5667C70.9727 8.536 70.5767 8.635 70.3787 8.833C70.1867 9.031 70.0907 9.424 70.0907 10.012C70.0907 10.606 70.1867 11.002 70.3787 11.2C70.5767 11.392 70.9727 11.488 71.5667 11.488ZM81.2218 13C80.7178 13 80.4658 12.748 80.4658 12.244V4.63C80.4658 4.126 80.7178 3.874 81.2218 3.874C81.7258 3.874 81.9778 4.126 81.9778 4.63V5.332C82.3318 4.852 82.7818 4.489 83.3278 4.243C83.8798 3.997 84.5098 3.874 85.2178 3.874C85.7218 3.874 85.9738 4.126 85.9738 4.63C85.9738 5.134 85.7218 5.386 85.2178 5.386C84.1798 5.386 83.3878 5.578 82.8418 5.962C82.2958 6.346 82.0078 6.853 81.9778 7.483V12.244C81.9778 12.748 81.7258 13 81.2218 13ZM90.8918 13C89.6978 13 88.8098 12.712 88.2278 12.136C87.6518 11.554 87.3638 10.666 87.3638 9.472V7.402C87.3638 6.202 87.6518 5.314 88.2278 4.738C88.8098 4.162 89.6978 3.874 90.8918 3.874H94.3838V1.084C94.3838 0.579999 94.6358 0.327999 95.1398 0.327999C95.6438 0.327999 95.8958 0.579999 95.8958 1.084V12.244C95.8958 12.748 95.6438 13 95.1398 13C94.6358 13 94.3838 12.748 94.3838 12.244V12.118C94.1018 12.406 93.7328 12.625 93.2768 12.775C92.8208 12.925 92.2538 13 91.5758 13H90.8918ZM90.8918 11.488H91.5758C92.3678 11.488 93.0338 11.386 93.5738 11.182C94.1138 10.978 94.3838 10.666 94.3838 10.246V5.386H90.8918C90.1118 5.386 89.5808 5.53 89.2988 5.818C89.0168 6.1 88.8758 6.628 88.8758 7.402V9.472C88.8758 10.252 89.0168 10.783 89.2988 11.065C89.5868 11.347 90.1178 11.488 90.8918 11.488ZM104.552 12.928C104.072 12.742 103.928 12.412 104.12 11.938L108.404 1.39C108.584 0.993999 108.866 0.795999 109.25 0.795999H109.286C109.676 0.814 109.94 1.012 110.078 1.39L114.434 11.938C114.626 12.412 114.488 12.742 114.02 12.928C113.546 13.114 113.216 12.976 113.03 12.514L112.058 10.156H106.451L105.524 12.514C105.338 12.982 105.014 13.12 104.552 12.928ZM107.045 8.644H111.437L109.196 3.19L107.045 8.644ZM117.696 13C117.192 13 116.94 12.748 116.94 12.244V4.63C116.94 4.126 117.192 3.874 117.696 3.874C118.2 3.874 118.452 4.126 118.452 4.63V5.332C118.806 4.852 119.256 4.489 119.802 4.243C120.354 3.997 120.984 3.874 121.692 3.874C122.196 3.874 122.448 4.126 122.448 4.63C122.448 5.134 122.196 5.386 121.692 5.386C120.654 5.386 119.862 5.578 119.316 5.962C118.77 6.346 118.482 6.853 118.452 7.483V12.244C118.452 12.748 118.2 13 117.696 13ZM127.366 13C126.172 13 125.284 12.712 124.702 12.136C124.126 11.554 123.838 10.666 123.838 9.472V7.384C123.838 6.184 124.123 5.296 124.693 4.72C125.269 4.144 126.16 3.862 127.366 3.874H128.842C129.736 3.874 130.438 4.024 130.948 4.324C131.464 4.624 131.794 5.086 131.938 5.71C131.992 5.962 131.947 6.157 131.803 6.295C131.665 6.433 131.464 6.502 131.2 6.502C130.966 6.502 130.795 6.442 130.687 6.322C130.579 6.202 130.48 6.034 130.39 5.818C130.3 5.656 130.135 5.545 129.895 5.485C129.655 5.419 129.304 5.386 128.842 5.386H127.366C126.592 5.374 126.061 5.509 125.773 5.791C125.491 6.067 125.35 6.598 125.35 7.384V9.472C125.35 10.252 125.491 10.783 125.773 11.065C126.061 11.347 126.592 11.488 127.366 11.488H128.842C129.304 11.488 129.655 11.458 129.895 11.398C130.135 11.332 130.3 11.218 130.39 11.056C130.48 10.828 130.579 10.657 130.687 10.543C130.801 10.429 130.978 10.372 131.218 10.372C131.47 10.372 131.665 10.441 131.803 10.579C131.947 10.717 131.992 10.912 131.938 11.164C131.794 11.782 131.464 12.244 130.948 12.55C130.438 12.85 129.736 13 128.842 13H127.366ZM135.837 13C135.333 13 135.081 12.748 135.081 12.244V1.084C135.081 0.579999 135.333 0.327999 135.837 0.327999C136.341 0.327999 136.593 0.579999 136.593 1.084V4.927C137.229 4.225 138.165 3.874 139.401 3.874H139.905C141.105 3.874 141.993 4.162 142.569 4.738C143.145 5.314 143.433 6.202 143.433 7.402V12.244C143.433 12.748 143.181 13 142.677 13C142.173 13 141.921 12.748 141.921 12.244V7.402C141.921 6.616 141.777 6.085 141.489 5.809C141.207 5.527 140.679 5.386 139.905 5.386H139.401C138.681 5.386 138.054 5.47 137.52 5.638C136.986 5.8 136.677 6.058 136.593 6.412V12.244C136.593 12.748 136.341 13 135.837 13ZM147.503 2.398C146.933 2.398 146.648 2.11 146.648 1.534V1.003C146.648 0.439 146.933 0.157 147.503 0.157H148.025C148.571 0.157 148.844 0.439 148.844 1.003V1.534C148.844 2.11 148.571 2.398 148.025 2.398H147.503ZM147.755 13C147.251 13 146.999 12.748 146.999 12.244V4.63C146.999 4.126 147.251 3.874 147.755 3.874C148.259 3.874 148.511 4.126 148.511 4.63V12.244C148.511 12.748 148.259 13 147.755 13ZM155.819 12.442C155.741 12.628 155.63 12.769 155.486 12.865C155.348 12.955 155.171 13 154.955 13C154.577 13 154.307 12.802 154.145 12.406L151.085 4.954C150.875 4.474 151.007 4.144 151.481 3.964C151.931 3.754 152.261 3.886 152.471 4.36L155.333 11.344H154.631L157.763 4.324C157.865 4.126 158.003 3.991 158.177 3.919C158.357 3.847 158.555 3.862 158.771 3.964C159.215 4.174 159.335 4.51 159.131 4.972L155.819 12.442ZM162.458 9.058V9.49C162.458 10.264 162.599 10.792 162.881 11.074C163.163 11.35 163.694 11.488 164.474 11.488H165.95C166.562 11.488 167.015 11.431 167.309 11.317C167.603 11.203 167.798 11.002 167.894 10.714C167.96 10.486 168.05 10.312 168.164 10.192C168.284 10.072 168.464 10.012 168.704 10.012C168.956 10.012 169.148 10.078 169.28 10.21C169.412 10.342 169.454 10.534 169.406 10.786C169.274 11.53 168.92 12.085 168.344 12.451C167.768 12.817 166.97 13 165.95 13H164.474C163.28 13 162.392 12.712 161.81 12.136C161.234 11.56 160.946 10.678 160.946 9.49V7.402C160.946 6.184 161.234 5.29 161.81 4.72C162.392 4.144 163.28 3.862 164.474 3.874H165.95C167.15 3.874 168.038 4.162 168.614 4.738C169.19 5.308 169.478 6.196 169.478 7.402V8.302C169.478 8.806 169.226 9.058 168.722 9.058H162.458ZM164.474 5.386C163.694 5.374 163.163 5.509 162.881 5.791C162.599 6.073 162.458 6.61 162.458 7.402V7.546H167.966V7.402C167.966 6.616 167.825 6.085 167.543 5.809C167.267 5.527 166.736 5.386 165.95 5.386H164.474Z" fill="white"/>
</svg>
